<mxfile host="Electron" modified="2023-06-13T02:58:36.977Z" agent="Mozilla/5.0 (Windows NT 10.0; Win64; x64) AppleWebKit/537.36 (KHTML, like Gecko) draw.io/21.1.2 Chrome/106.0.5249.199 Electron/21.4.3 Safari/537.36" version="21.1.2" etag="w6mto4GhnZtAuX6WY8Lk" type="device">
  <diagram id="FGg3PbBnw1JhbIMUoCau" name="Page-1">
    <mxGraphModel dx="846" dy="556" grid="1" gridSize="10" guides="1" tooltips="1" connect="1" arrows="1" fold="1" page="1" pageScale="1" pageWidth="900" pageHeight="480" math="0" shadow="0">
      <root>
        <mxCell id="0" />
        <mxCell id="1" parent="0" />
        <mxCell id="ZqaCROfjUU1wmaisd_a5-1" value="main.cpp&lt;br&gt;&lt;br&gt;- initializes resources&lt;br&gt;- pulls in and starts the sub-systems&lt;br&gt;- starts the application loop" style="rounded=0;whiteSpace=wrap;html=1;verticalAlign=top;horizontal=1;" vertex="1" parent="1">
          <mxGeometry x="290" y="190" width="320" height="120" as="geometry" />
        </mxCell>
        <mxCell id="ZqaCROfjUU1wmaisd_a5-4" style="edgeStyle=orthogonalEdgeStyle;rounded=0;orthogonalLoop=1;jettySize=auto;html=1;" edge="1" parent="1" source="ZqaCROfjUU1wmaisd_a5-2">
          <mxGeometry relative="1" as="geometry">
            <mxPoint x="290" y="200" as="targetPoint" />
            <Array as="points">
              <mxPoint x="180" y="200" />
              <mxPoint x="290" y="200" />
            </Array>
          </mxGeometry>
        </mxCell>
        <mxCell id="ZqaCROfjUU1wmaisd_a5-2" value="&lt;b&gt;global_registration_system.cpp&lt;/b&gt;&lt;br&gt;- registers custom colors&lt;br&gt;- registers event handlers" style="rounded=1;whiteSpace=wrap;html=1;verticalAlign=top;" vertex="1" parent="1">
          <mxGeometry x="80" y="90" width="210" height="60" as="geometry" />
        </mxCell>
        <mxCell id="ZqaCROfjUU1wmaisd_a5-6" style="edgeStyle=orthogonalEdgeStyle;rounded=0;orthogonalLoop=1;jettySize=auto;html=1;entryX=0.001;entryY=0.672;entryDx=0;entryDy=0;entryPerimeter=0;" edge="1" parent="1" source="ZqaCROfjUU1wmaisd_a5-5" target="ZqaCROfjUU1wmaisd_a5-1">
          <mxGeometry relative="1" as="geometry">
            <mxPoint x="270" y="270" as="targetPoint" />
            <Array as="points">
              <mxPoint x="180" y="271" />
            </Array>
          </mxGeometry>
        </mxCell>
        <mxCell id="ZqaCROfjUU1wmaisd_a5-5" value="&lt;b&gt;mcx_manager_system.cpp&lt;/b&gt;&lt;br&gt;- keeps a list/map of all mcx files&lt;br&gt;- responsible for loading all the mcx files and widgets" style="rounded=1;whiteSpace=wrap;html=1;verticalAlign=top;" vertex="1" parent="1">
          <mxGeometry x="80" y="310" width="190" height="80" as="geometry" />
        </mxCell>
      </root>
    </mxGraphModel>
  </diagram>
</mxfile>
